<svg width="20" height="20" viewBox="0 0 20 20" fill="none" xmlns="http://www.w3.org/2000/svg">
<path d="M16.0983 11.2501H12.8608C12.4342 11.2518 12.0256 11.4221 11.724 11.7239C11.4225 12.0256 11.2524 12.4343 11.2508 12.8609V16.0984C11.2506 16.3099 11.2921 16.5194 11.3729 16.7148C11.4538 16.9102 11.5723 17.0878 11.7219 17.2373C11.8714 17.3869 12.049 17.5055 12.2444 17.5863C12.4399 17.6671 12.6493 17.7086 12.8608 17.7084H16.0983C16.5253 17.7082 16.9346 17.5385 17.2365 17.2366C17.5384 16.9347 17.7081 16.5253 17.7083 16.0984V12.8609C17.7085 12.6494 17.667 12.44 17.5862 12.2445C17.5054 12.0491 17.3868 11.8715 17.2373 11.722C17.0877 11.5724 16.9101 11.4539 16.7147 11.373C16.5193 11.2922 16.3098 11.2507 16.0983 11.2509M16.0983 2.29175H3.90166C3.69017 2.29153 3.48071 2.33302 3.28528 2.41386C3.08985 2.49469 2.91227 2.61327 2.76273 2.76282C2.61318 2.91236 2.4946 3.08994 2.41377 3.28537C2.33293 3.4808 2.29144 3.69026 2.29166 3.90175V7.13925C2.29133 7.35081 2.33274 7.56036 2.41353 7.75588C2.49431 7.95141 2.61288 8.12908 2.76243 8.27872C2.91199 8.42835 3.0896 8.54701 3.28509 8.6279C3.48057 8.70878 3.6901 8.7503 3.90166 8.75008H16.0983C16.3098 8.7503 16.5193 8.70881 16.7147 8.62797C16.9101 8.54714 17.0877 8.42856 17.2373 8.27901C17.3868 8.12947 17.5054 7.95189 17.5862 7.75646C17.667 7.56103 17.7085 7.35157 17.7083 7.14008V3.90175C17.7085 3.69026 17.667 3.4808 17.5862 3.28537C17.5054 3.08994 17.3868 2.91236 17.2373 2.76282C17.0877 2.61327 16.9101 2.49469 16.7147 2.41386C16.5193 2.33302 16.3098 2.29153 16.0983 2.29175ZM7.13916 11.2501H3.90166C3.6901 11.2499 3.48057 11.2914 3.28509 11.3723C3.0896 11.4532 2.91199 11.5718 2.76243 11.7214C2.61288 11.8711 2.49431 12.0488 2.41353 12.2443C2.33274 12.4398 2.29133 12.6494 2.29166 12.8609V16.0984C2.29144 16.3099 2.33293 16.5194 2.41377 16.7148C2.4946 16.9102 2.61318 17.0878 2.76273 17.2373C2.91227 17.3869 3.08985 17.5055 3.28528 17.5863C3.48071 17.6671 3.69017 17.7086 3.90166 17.7084H7.13916C7.35065 17.7086 7.56011 17.6671 7.75554 17.5863C7.95097 17.5055 8.12854 17.3869 8.27809 17.2373C8.42763 17.0878 8.54622 16.9102 8.62705 16.7148C8.70788 16.5194 8.74938 16.3099 8.74916 16.0984V12.8609C8.74762 12.4343 8.57753 12.0256 8.27595 11.7239C7.97438 11.4221 7.56576 11.2518 7.13916 11.2501Z" stroke="#1A1D1D" stroke-width="1.25" stroke-linecap="round" stroke-linejoin="round"/>
</svg>
