<svg width="20" height="20" viewBox="0 0 20 20" fill="none" xmlns="http://www.w3.org/2000/svg">
<path d="M11.25 12.5H4.99999C3.42832 12.5 2.64332 12.5 2.15499 12.0117C1.66666 11.5233 1.66666 10.7383 1.66666 9.16667V5.83333C1.66666 4.26167 1.66666 3.47667 2.15499 2.98833C2.64332 2.5 3.42832 2.5 4.99999 2.5H15C16.5717 2.5 17.3567 2.5 17.845 2.98833C18.3333 3.47667 18.3333 4.26167 18.3333 5.83333V10C18.3333 10.7767 18.3333 11.165 18.2067 11.4708C18.1229 11.6732 18.0001 11.857 17.8452 12.0119C17.6904 12.1668 17.5065 12.2896 17.3042 12.3733C16.9983 12.5 16.61 12.5 15.8333 12.5" stroke="#1A1D1D" stroke-width="1.25" stroke-linecap="round" stroke-linejoin="round"/>
<path d="M10.8333 14.1666C10.8333 13.5035 11.0967 12.8677 11.5656 12.3988C12.0344 11.93 12.6703 11.6666 13.3333 11.6666V9.99992C13.3333 9.33688 13.5967 8.70099 14.0656 8.23215C14.5344 7.76331 15.1703 7.49992 15.8333 7.49992V12.0833C15.8333 14.0291 15.8333 15.0016 15.44 15.7383C15.1292 16.3196 14.653 16.7958 14.0717 17.1066C13.335 17.4999 12.3625 17.4999 10.4167 17.4999H10C8.44667 17.4999 7.67 17.4999 7.05833 17.2458C6.65379 17.0784 6.28617 16.833 5.97646 16.5236C5.66676 16.2142 5.42104 15.8468 5.25333 15.4424C5 14.8299 5 14.0533 5 12.4999M11.6667 7.49992C11.6667 7.94195 11.4911 8.36587 11.1785 8.67843C10.866 8.99099 10.442 9.16659 10 9.16659C9.55797 9.16659 9.13405 8.99099 8.82149 8.67843C8.50893 8.36587 8.33333 7.94195 8.33333 7.49992C8.33333 7.05789 8.50893 6.63397 8.82149 6.32141C9.13405 6.00885 9.55797 5.83325 10 5.83325C10.442 5.83325 10.866 6.00885 11.1785 6.32141C11.4911 6.63397 11.6667 7.05789 11.6667 7.49992Z" stroke="#1A1D1D" stroke-width="1.25" stroke-linecap="round" stroke-linejoin="round"/>
</svg>
