<svg width="42" height="52" viewBox="0 0 42 52" fill="none" xmlns="http://www.w3.org/2000/svg">
<path d="M16.7721 1.70946C19.0514 -0.569809 22.7471 -0.569834 25.0265 1.70946L40.2037 16.8869C41.6384 18.3216 41.7984 20.3343 41.7984 22.1681V25.7387C41.7984 26.5636 40.7929 27.0101 40.1365 26.5105C38.5557 25.3072 36.7584 24.2846 34.7446 23.443C30.6977 21.7518 26.0511 20.9062 20.805 20.9062C15.559 20.9062 10.9124 21.7518 6.86545 23.443C4.92271 24.2549 3.18722 25.2352 1.65897 26.3837C1.00119 26.8781 0 26.4306 0 25.6078V22.1677C6.52166e-06 20.3343 0.160035 18.3215 1.59469 16.8869L16.7721 1.70946Z" fill="url(#paint0_linear_28_87)"/>
<path d="M20.8992 27.8656C27.4883 27.8656 32.6188 29.3076 36.2906 32.1918C39.9624 35.0376 41.7983 38.9024 41.7984 43.7864V47.8234C41.7984 49.7991 40.1967 51.4007 38.221 51.4007H3.57734C1.60163 51.4007 0 49.7991 0 47.8234V43.7864C2.12196e-05 38.9024 1.83599 35.0376 5.50777 32.1918C9.17957 29.3076 14.3101 27.8656 20.8992 27.8656Z" fill="url(#paint1_linear_28_87)"/>
<defs>
<linearGradient id="paint0_linear_28_87" x1="30.8008" y1="-10.349" x2="20.8362" y2="56.5286" gradientUnits="userSpaceOnUse">
<stop stop-color="#7EFFF9"/>
<stop offset="1" stop-color="#4BBDDD"/>
</linearGradient>
<linearGradient id="paint1_linear_28_87" x1="30.8008" y1="-10.349" x2="20.8362" y2="56.5286" gradientUnits="userSpaceOnUse">
<stop stop-color="#7EFFF9"/>
<stop offset="1" stop-color="#4BBDDD"/>
</linearGradient>
</defs>
</svg>
